<svg xmlns="http://www.w3.org/2000/svg" width="14" height="14">
    <path fill="currentColor"
          d="M6.62 1.92c1.662 0 1.859.007 2.515.037.606.028.935.13 1.155.214.29.113.497.248.715.466.218.217.352.425.465.715.085.22.187.549.214 1.155.03.656.037.853.037 2.514 0 1.66-.007 1.858-.037 2.514-.027.606-.129.935-.214 1.155-.113.29-.247.497-.465.715a1.929 1.929 0 01-.715.465c-.22.085-.549.187-1.155.214-.656.03-.853.037-2.514.037-1.661 0-1.858-.007-2.514-.037-.606-.027-.936-.129-1.155-.214a1.921 1.921 0 01-.715-.465 1.931 1.931 0 01-.466-.715c-.085-.22-.186-.549-.214-1.155-.03-.656-.036-.853-.036-2.514 0-1.661.006-1.858.036-2.514.028-.606.13-.936.214-1.155.113-.29.248-.498.466-.715.217-.218.425-.353.715-.466.22-.085.549-.186 1.155-.214.656-.03.853-.036 2.514-.036M6.62.8C4.93.8 4.719.807 4.056.837c-.662.03-1.114.136-1.51.29a3.04 3.04 0 00-1.102.717 3.048 3.048 0 00-.717 1.102c-.154.396-.26.848-.29 1.51C.407 5.119.4 5.331.4 7.021s.007 1.901.037 2.565c.03.662.136 1.114.29 1.51.159.409.371.756.717 1.102.346.345.693.558 1.102.717.396.154.848.259 1.51.29.663.03.875.037 2.565.037s1.901-.008 2.565-.038c.662-.03 1.114-.135 1.51-.289a3.05 3.05 0 001.101-.717c.346-.346.559-.693.718-1.102.154-.396.259-.848.29-1.51.03-.664.037-.876.037-2.565 0-1.69-.008-1.902-.038-2.565-.03-.662-.135-1.114-.289-1.51a3.043 3.043 0 00-.718-1.102 3.037 3.037 0 00-1.101-.717c-.396-.154-.848-.26-1.51-.29C8.522.807 8.31.8 6.62.8zm0 3.026a3.195 3.195 0 100 6.39 3.195 3.195 0 000-6.39zm0 5.268a2.074 2.074 0 110-4.147 2.074 2.074 0 010 4.147zM10.688 3.7a.747.747 0 11-1.494 0 .747.747 0 011.494 0z"
    />
</svg>