<svg xmlns="http://www.w3.org/2000/svg" xmlns:xlink="http://www.w3.org/1999/xlink" width="15" height="15">
    <g>
        <mask id="b" fill="red">
            <path id="a" d="M.012.203H13.93v14.354H.012z"/>
        </mask>
        <path fill="currentColor"
              d="M2.163 1.498v9.174H5.22v1.738l.1-.094c.515-.515 1.032-1.028 1.544-1.545a.316.316 0 01.25-.103c1.069.003 2.137.004 3.205-.002a.36.36 0 00.232-.097c.666-.656 1.325-1.32 1.99-1.98a.318.318 0 00.1-.25c-.002-2.227-.001-4.454-.001-6.682v-.159H2.163zm1.325 13.06V12.84H.008C.006 12.768 0 12.712 0 12.656 0 9.424 0 6.192.002 2.96c0-.093.016-.19.046-.28.256-.78.52-1.558.774-2.339C.856.24.898.203 1.01.203c4.258.003 8.516.003 12.774.003h.143v.18c0 2.786 0 5.571.003 8.357a.358.358 0 01-.117.278c-1.235 1.23-2.468 2.463-3.698 3.699a.353.353 0 01-.278.115c-.75-.005-1.5 0-2.249-.006a.44.44 0 00-.348.141c-.495.505-.996 1.004-1.5 1.5-.047.047-.123.094-.185.095-.67.006-1.34.004-2.01.003-.015 0-.03-.005-.057-.01z"
              />
        <path fill="currentColor" d="M6.958 4.14v3.878H5.666V4.141h1.292m3.476 3.882H9.165V4.141h1.269v3.882"/>
    </g>
</svg>