<svg xmlns="http://www.w3.org/2000/svg" width="14" height="11">
    <path fill="currentColor"
          d="M4.449 10.462c4.858 0 7.515-4.024 7.515-7.514 0-.115-.003-.229-.008-.342a5.374 5.374 0 001.318-1.368c-.474.21-.983.352-1.517.416a2.65 2.65 0 001.161-1.46 5.284 5.284 0 01-1.677.64A2.642 2.642 0 006.74 3.243 7.494 7.494 0 011.296.483a2.642 2.642 0 00.818 3.527 2.647 2.647 0 01-1.197-.33v.033c0 1.28.91 2.347 2.119 2.59a2.662 2.662 0 01-1.193.045 2.643 2.643 0 002.468 1.834 5.296 5.296 0 01-3.281 1.13c-.213 0-.423-.012-.63-.036a7.47 7.47 0 004.049 1.186"/>
</svg>