<svg xmlns="http://www.w3.org/2000/svg" width="19" height="14">
    <path fill="currentColor"
          d="M9.9 12.484l-3.538-.064c-1.146-.023-2.295.022-3.418-.212-1.708-.349-1.83-2.06-1.956-3.496a24.467 24.467 0 01.222-6.074C1.396 1.515 2.128.844 3.26.772 7.08.507 10.924.538 14.735.662c.403.011.808.073 1.205.143 1.96.344 2.007 2.283 2.134 3.916.127 1.65.073 3.308-.169 4.946-.194 1.356-.566 2.494-2.134 2.604-1.965.143-3.885.259-5.855.222 0-.009-.011-.009-.017-.009zM7.82 9.05c1.48-.85 2.933-1.686 4.405-2.53-1.483-.85-2.933-1.687-4.405-2.531V9.05z"
    />
</svg>